<?xml version="1.0" encoding="UTF-8"?>
<svg width="1788px" height="270px" viewBox="0 0 1788 270" version="1.1" xmlns="http://www.w3.org/2000/svg" xmlns:xlink="http://www.w3.org/1999/xlink">
    <title>美好已经播种</title>
    <g id="页面-1" stroke="none" stroke-width="1" fill="none" fill-rule="evenodd">
        <path d="M254.96,138.88 L254.96,133.12 L137.168,133.12 L137.168,89.344 L236.816,89.344 L236.816,83.584 L137.168,83.584 L137.168,40.096 L249.776,40.096 L249.776,34.336 L183.248,34.336 L205.424,4.384 L199.088,0.928 L174.608,34.336 L22.256,34.336 L17.648,40.096 L129.968,40.096 L129.968,83.584 L35.216,83.584 L30.608,89.344 L129.968,89.344 L129.968,133.12 L17.36,133.12 L12.752,138.88 L254.96,138.88 Z M89.36,31.168 L95.12,26.848 L72.08,0.928 L66.32,4.96 L89.36,31.168 Z M265.904,266.464 L267.92,259.264 C218.384,253.504 156.752,227.584 138.608,188.992 L257.84,188.992 L257.84,183.232 L133.136,183.232 C136.016,174.592 138.032,165.088 139.184,154.432 L131.984,152.992 C130.832,163.936 128.816,174.016 125.648,183.232 L14.48,183.232 L9.872,188.992 L123.344,188.992 C105.776,231.616 63.44,253.504 0.368,259.264 L2.384,266.464 C61.136,260.128 110.96,241.12 130.832,189.856 C151.28,231.616 207.152,259.552 265.904,266.464 Z M309.94,269.92 C331.54,251.2 349.972,229.312 364.948,204.544 L412.756,247.744 L417.652,242.272 L368.692,198.208 C391.732,157.888 405.844,110.944 410.164,60.832 C410.74,52.192 407.284,50.752 399.508,50.752 L346.228,50.752 L356.884,3.52 L349.972,1.504 L339.028,50.752 L310.516,50.752 L306.484,56.512 L337.588,56.512 L316.276,152.128 C315.124,157.312 317.14,161.056 319.732,163.36 L359.764,199.936 C345.364,223.84 327.508,245.44 305.62,264.448 L309.94,269.92 Z M495.988,252.064 L495.988,135.424 L571.732,135.424 L571.732,129.664 L495.988,129.664 L495.988,107.2 C495.988,102.88 496.276,99.424 499.444,95.392 L556.756,22.24 C559.924,18.208 559.06,14.464 552.148,14.464 L431.764,14.464 L426.58,20.224 L549.844,20.224 L493.684,91.36 C490.228,96.256 488.788,99.424 488.788,107.488 L488.788,129.664 L418.516,129.664 L413.62,135.424 L488.788,135.424 L488.788,253.216 C488.788,260.704 487.348,262.72 479.284,261.856 L438.964,258.112 L438.964,264.448 L478.708,267.904 C492.244,269.056 495.988,266.752 495.988,252.064 Z M363.508,193.6 L324.916,158.752 C323.476,157.6 322.9,154.72 323.476,152.416 L344.788,56.512 L398.932,56.512 C403.828,56.512 403.54,60.256 403.252,62.272 C398.932,108.64 385.972,153.856 363.508,193.6 Z M847.896,262.72 C855.96,262.72 860.856,255.52 861.72,249.472 L869.496,187.264 L862.584,185.824 L855.096,246.304 C854.52,253.216 850.2,256.96 844.728,256.96 L655.512,256.96 C650.616,256.96 649.176,255.232 649.176,251.488 L649.176,138.016 L830.328,138.016 C835.512,138.016 840.12,133.984 840.12,129.376 L840.12,17.056 C840.12,12.736 836.952,9.28 832.92,9.28 L640.248,9.28 L636.504,15.04 L827.448,15.04 C830.616,15.04 832.92,17.056 832.92,19.936 L832.92,126.208 C832.92,129.376 830.328,132.256 826.872,132.256 L649.176,132.256 L649.176,78.112 L641.976,78.112 L641.976,253.792 C641.976,258.112 646.008,262.72 651.192,262.72 L847.896,262.72 Z M929.372,207.136 L1001.66,197.92 L1001.084,191.008 L932.54,199.936 L1011.74,64 L1005.404,60.544 L981.788,100.864 L926.204,105.184 L973.148,7.552 L966.236,4.384 L918.716,104.032 C916.124,109.792 918.14,112.384 924.188,111.808 L978.044,107.488 L924.476,198.784 C922.172,203.104 923.612,208 929.372,207.136 Z M1013.18,138.016 C1043.996,126.496 1074.524,106.624 1099.58,84.448 L1175.324,137.728 L1179.932,132.256 L1104.764,79.84 C1125.5,60.544 1142.492,40.096 1152.572,21.952 C1155.452,16.768 1152.86,15.04 1148.252,15.04 L1029.308,15.04 L1024.988,20.8 L1145.084,20.8 C1118.012,67.168 1057.532,114.4 1010.3,131.104 L1013.18,138.016 Z M1181.084,261.28 L1181.084,255.52 L1099.868,255.52 L1099.868,164.512 L1168.124,164.512 L1168.124,158.752 L1026.14,158.752 L1022.108,164.512 L1092.668,164.512 L1092.668,255.52 L1014.044,255.52 L1009.148,261.28 L1181.084,261.28 Z M917.276,263.584 L1004.828,244.576 L1003.388,237.088 L915.548,256.384 L917.276,263.584 Z M1258.816,257.248 L1258.816,150.976 L1291.072,140.608 L1289.056,134.56 L1258.816,144.64 L1258.816,63.712 L1291.36,63.712 L1291.36,57.952 L1258.816,57.952 L1258.816,0.352 L1251.616,0.352 L1251.616,57.952 L1221.088,57.952 L1219.072,63.712 L1251.616,63.712 L1251.616,146.944 L1217.632,157.888 L1219.648,163.648 L1251.616,153.28 L1251.616,257.536 C1251.616,261.28 1250.176,263.008 1245.856,262.72 L1219.072,260.416 L1219.072,267.04 L1244.128,269.056 C1256.224,269.92 1258.816,267.616 1258.816,257.248 Z M1482.304,152.992 L1485.472,146.656 C1457.536,135.712 1418.944,108.928 1399.36,83.008 L1480.576,83.008 L1480.576,77.248 L1395.328,77.248 L1395.328,16.192 C1423.552,14.464 1450.912,12.448 1473.088,9.856 L1471.648,3.52 C1425.28,8.704 1354.72,13.6 1306.912,12.736 L1307.488,19.072 C1332.256,19.072 1360.48,17.92 1388.128,16.48 L1388.128,77.248 L1298.56,77.248 L1294.528,83.008 L1383.232,83.008 C1365.376,104.896 1332.256,133.12 1299.424,146.944 L1303.456,152.992 C1336.288,138.304 1368.256,112.384 1388.128,88.48 L1388.128,144.928 L1395.328,144.928 L1395.328,88.192 C1412.896,114.4 1456.672,143.488 1482.304,152.992 Z M1350.4,70.912 L1355.584,65.728 L1325.632,31.744 L1320.736,36.928 L1350.4,70.912 Z M1433.056,70.912 L1462.72,36.928 L1457.824,31.744 L1427.872,65.728 L1433.056,70.912 Z M1317.28,269.344 L1317.28,260.128 L1465.6,260.128 L1465.6,269.344 L1472.8,269.344 L1472.8,168.832 C1472.8,162.496 1470.208,160.48 1463.296,160.48 L1319.584,160.48 C1312.384,160.48 1310.08,163.072 1310.08,168.832 L1310.08,269.344 L1317.28,269.344 Z M1388.128,207.424 L1317.28,207.424 L1317.28,169.696 C1317.28,167.68 1317.856,166.24 1320.448,166.24 L1388.128,166.24 L1388.128,207.424 Z M1465.6,207.424 L1395.328,207.424 L1395.328,166.24 L1462.144,166.24 C1464.448,166.24 1465.6,167.392 1465.6,169.696 L1465.6,207.424 Z M1388.128,254.368 L1317.28,254.368 L1317.28,213.184 L1388.128,213.184 L1388.128,254.368 Z M1465.6,254.368 L1395.328,254.368 L1395.328,213.184 L1465.6,213.184 L1465.6,254.368 Z M1719.012,269.344 L1719.012,170.848 L1780.644,170.848 L1780.644,182.08 L1787.844,182.08 L1787.844,71.2 C1787.844,65.728 1784.388,62.848 1779.204,62.848 L1719.012,62.848 L1719.012,0.352 L1711.812,0.352 L1711.812,62.848 L1651.62,62.848 C1646.436,62.848 1643.268,66.016 1643.268,71.488 L1643.268,182.08 L1650.468,182.08 L1650.468,170.848 L1711.812,170.848 L1711.812,269.344 L1719.012,269.344 Z M1584.516,269.056 L1584.516,91.36 L1631.46,91.36 L1631.46,85.6 L1584.516,85.6 L1584.516,15.04 C1598.628,13.6 1612.74,11.872 1626.852,9.856 L1625.7,3.52 C1593.732,7.84 1560.324,11.296 1527.78,12.448 L1528.932,19.072 C1544.772,18.496 1560.9,17.344 1577.316,15.616 L1577.316,85.6 L1526.052,85.6 L1522.596,91.36 L1572.132,91.36 C1560.612,137.44 1542.468,188.704 1520.292,225.856 L1525.764,229.6 C1549.092,191.008 1566.084,143.2 1577.316,97.984 L1577.316,269.056 L1584.516,269.056 Z M1780.644,165.088 L1719.012,165.088 L1719.012,68.608 L1775.748,68.608 C1778.916,68.608 1780.644,70.336 1780.644,73.792 L1780.644,165.088 Z M1711.812,165.088 L1650.468,165.088 L1650.468,73.792 C1650.468,71.2 1652.196,68.608 1654.788,68.608 L1711.812,68.608 L1711.812,165.088 Z M1628.004,190.72 L1633.764,186.976 L1598.628,112.672 L1592.292,115.84 L1628.004,190.72 Z" id="美好已经播种" fill="#000000" fill-rule="nonzero"></path>
    </g>
</svg>