<?xml version="1.0" encoding="UTF-8"?>
<svg width="1787px" height="271px" viewBox="0 0 1787 271" version="1.1" xmlns="http://www.w3.org/2000/svg" xmlns:xlink="http://www.w3.org/1999/xlink">
    <title>等待你来收获</title>
    <g id="页面-1" stroke="none" stroke-width="1" fill="none" fill-rule="evenodd">
        <path d="M5.568,74.792 C19.68,59.24 32.064,43.688 42.144,26.984 L66.624,26.984 L89.088,73.64 L95.712,70.76 L74.112,26.984 L136.032,26.984 L136.032,21.224 L45.6,21.224 C49.056,15.176 52.224,9.128 55.104,2.504 L47.904,0.2 C39.84,20.936 19.68,50.024 0.096,69.32 L5.568,74.792 Z M225.6,75.656 L232.512,72.2 L206.88,26.984 L261.6,26.984 L261.6,21.224 L165.984,21.224 C169.152,14.888 171.744,8.552 173.76,2.504 L166.848,0.776 C159.648,20.936 147.552,42.248 130.56,60.968 L136.32,65.576 C147.264,52.904 156.192,39.656 163.104,26.984 L199.104,26.984 L225.6,75.656 Z M196.224,252.776 L196.224,195.464 L252.96,195.464 L252.96,189.704 L196.224,189.704 L196.224,150.248 L262.752,150.248 L262.752,144.488 L136.032,144.488 L136.032,103.304 L243.456,103.304 L243.456,97.832 L136.032,97.832 L136.032,70.472 L128.544,70.472 L128.544,97.832 L24.864,97.832 L20.256,103.304 L128.544,103.304 L128.544,144.488 L5.568,144.488 L0.672,150.248 L189.024,150.248 L189.024,189.704 L18.528,189.704 L13.344,195.464 L189.024,195.464 L189.024,252.2 C189.024,258.536 185.568,261.128 179.808,260.84 L125.952,257.96 L125.952,264.584 L181.248,266.888 C190.752,267.176 196.224,263.72 196.224,252.776 Z M102.912,251.912 L106.944,246.152 L56.544,213.32 L52.512,218.504 L102.912,251.912 Z M305.924,88.616 C333.572,64.712 358.628,34.184 375.908,3.944 L369.86,0.776 C353.732,28.136 326.948,62.12 302.468,82.568 L305.924,88.616 Z M526.82,255.368 L526.82,172.424 L569.156,172.424 L569.156,166.952 L526.82,166.952 L526.82,114.536 L570.02,114.536 L570.02,108.776 L484.484,108.776 L484.484,44.84 L563.108,44.84 L563.108,39.08 L484.484,39.08 L484.484,1.064 L477.572,1.064 L477.572,39.08 L408.452,39.08 L402.404,44.84 L477.572,44.84 L477.572,108.776 L395.492,108.776 L389.444,114.536 L519.62,114.536 L519.62,166.952 L394.34,166.952 L388.292,172.424 L519.62,172.424 L519.62,255.944 C519.62,261.128 518.468,262.856 513.572,262.568 L469.22,259.112 L469.22,265.736 L513.284,268.904 C525.38,269.768 526.82,264.584 526.82,255.368 Z M351.14,269.48 L351.14,127.496 C364.964,110.792 377.06,93.224 386.564,76.232 L380.516,72.776 C363.524,104.168 333.572,141.032 302.756,165.224 L306.212,171.272 C319.748,160.904 332.132,148.52 343.94,135.56 L343.94,269.48 L351.14,269.48 Z M453.092,246.44 L457.988,241.544 L411.908,192.584 L407.012,197.48 L453.092,246.44 Z M692.392,118.568 C706.216,96.392 717.736,72.776 726.664,48.584 L859.432,48.584 L835.528,113.096 L842.728,115.4 L867.208,49.16 C868.648,45.416 867.496,42.824 862.6,42.824 L728.68,42.824 C733.576,29.288 737.896,15.464 741.352,1.928 L734.152,0.488 C723.784,39.944 707.656,79.976 686.344,114.536 L692.392,118.568 Z M654.952,270.344 L654.952,70.76 C664.456,49.16 672.808,26.408 679.144,3.08 L672.232,1.064 C659.848,45.416 632.488,104.456 606.568,142.76 L612.04,147.944 C624.136,130.376 636.52,109.352 647.752,86.024 L647.752,270.344 L654.952,270.344 Z M780.808,252.2 L780.808,79.688 L773.608,79.688 L773.608,252.776 C773.608,259.688 770.152,262.28 762.952,261.704 L714.856,258.248 L714.856,264.872 L763.816,268.04 C777.352,268.904 780.808,261.704 780.808,252.2 Z M690.952,233.48 C705.064,202.664 716.872,171.272 726.376,137.288 L719.176,134.984 C709.384,168.392 699.304,198.056 684.04,229.736 L690.952,233.48 Z M860.584,237.224 L867.496,234.344 C856.84,203.816 844.456,173 829.192,137.576 L822.568,140.744 C836.68,173 849.064,204.968 860.584,237.224 Z M1047.756,270.344 L1047.756,148.808 C1082.028,193.448 1126.956,230.024 1175.916,255.08 L1179.372,249.032 C1130.124,224.264 1085.196,186.248 1053.228,144.488 L1170.156,144.488 L1170.156,138.728 L1047.756,138.728 L1047.756,43.688 L1159.212,43.688 L1159.212,37.928 L1047.756,37.928 L1047.756,0.776 L1040.556,0.776 L1040.556,37.928 L930.252,37.928 L926.508,43.688 L1040.556,43.688 L1040.556,138.728 L920.172,138.728 L916.428,144.488 L1035.66,144.488 C1003.404,186.248 959.34,224.264 910.38,249.032 L913.836,255.08 C962.508,230.024 1006.284,193.736 1040.556,149.384 L1040.556,270.344 L1047.756,270.344 Z M992.748,122.888 L998.22,118.28 L957.612,59.528 L952.428,63.848 L992.748,122.888 Z M1095.852,122.888 L1136.172,63.848 L1130.988,59.528 L1090.38,118.28 L1095.852,122.888 Z M1304.336,270.632 L1304.336,1.064 L1297.136,1.064 L1297.136,178.76 L1237.52,199.784 C1233.776,200.936 1230.896,199.208 1230.896,194.6 L1230.896,37.352 L1223.696,37.352 L1223.696,194.888 C1223.696,205.544 1231.472,208.712 1240.112,205.832 L1297.136,185.384 L1297.136,270.632 L1304.336,270.632 Z M1338.896,270.632 C1369.424,253.64 1393.328,232.904 1411.76,208.424 C1429.616,232.328 1451.504,252.776 1475.984,269.48 L1479.728,263.432 C1455.536,247.592 1433.936,227.144 1416.08,202.376 C1443.728,162.344 1457.84,113.096 1461.296,55.208 L1483.184,55.208 L1483.184,49.448 L1369.136,49.448 C1374.608,33.896 1378.64,18.344 1381.232,3.08 L1374.32,1.928 C1367.12,43.688 1344.656,96.392 1319.312,128.36 L1324.208,133.256 C1336.592,117.416 1348.688,97.256 1358.48,75.656 C1365.68,125.192 1382.672,167.528 1407.152,202.376 C1389.296,227.144 1365.68,247.88 1335.728,264.296 L1338.896,270.632 Z M1411.472,196.04 C1386.992,160.04 1370,115.4 1363.376,64.136 C1364.528,61.256 1365.968,58.376 1367.12,55.208 L1453.232,55.208 C1450.352,110.216 1437.104,157.736 1411.472,196.04 Z M1709.524,58.376 L1709.524,30.152 L1786.42,30.152 L1786.42,24.392 L1709.524,24.392 L1709.524,0.488 L1702.324,0.488 L1702.324,24.392 L1603.828,24.392 L1603.828,0.488 L1596.628,0.488 L1596.628,24.392 L1523.476,24.392 L1518.58,30.152 L1596.628,30.152 L1596.628,58.088 L1603.828,58.088 L1603.828,30.152 L1702.324,30.152 L1702.324,58.376 L1709.524,58.376 Z M1603.54,225.704 C1606.132,180.488 1597.492,145.928 1574.164,111.368 C1588.564,99.56 1601.236,87.176 1613.332,73.064 L1608.436,67.88 C1597.78,81.416 1584.532,94.088 1570.132,105.896 C1560.916,92.936 1549.684,79.688 1536.436,65.864 L1531.54,71.048 C1544.788,84.584 1556.02,97.544 1564.948,110.216 C1549.972,122.024 1533.844,132.392 1518.004,140.744 L1521.46,147.08 C1539.028,137.288 1554.292,126.92 1568.692,115.688 C1578.484,130.952 1585.684,145.928 1590.004,162.056 C1573.012,182.792 1548.82,203.24 1521.46,217.64 L1524.34,223.688 C1553.716,207.272 1574.74,189.704 1592.308,170.408 C1596.052,187.112 1596.916,205.256 1596.052,225.416 C1594.9,248.456 1587.412,265.448 1564.372,263.432 L1541.332,261.128 L1541.332,267.464 L1564.084,269.768 C1596.34,272.648 1602.388,245 1603.54,225.704 Z M1778.068,270.344 L1782.964,264.872 C1753.3,236.648 1714.996,184.52 1705.204,135.848 L1785.268,135.848 L1785.268,130.088 L1701.172,130.088 C1701.172,127.496 1701.46,124.616 1701.46,121.736 L1701.46,67.88 L1694.26,67.88 L1694.26,118.856 C1694.26,122.6 1693.972,126.344 1693.684,130.088 L1623.412,130.088 L1618.516,135.848 L1693.396,135.848 C1688.212,190.568 1658.548,233.192 1615.348,263.432 L1619.956,269.48 C1663.732,237.8 1693.108,195.176 1700.02,144.2 C1711.54,193.16 1748.404,240.968 1778.068,270.344 Z M1768.564,117.704 L1774.036,112.808 L1738.036,70.76 L1732.564,75.368 L1768.564,117.704 Z" id="等待你来收获" fill="#000000" fill-rule="nonzero"></path>
    </g>
</svg>