<?xml version="1.0" encoding="UTF-8"?>
<svg width="2011px" height="703px" viewBox="0 0 2011 703" version="1.1" xmlns="http://www.w3.org/2000/svg" xmlns:xlink="http://www.w3.org/1999/xlink">
    <title>编组 10</title>
    <g id="页面-1" stroke="none" stroke-width="1" fill="none" fill-rule="evenodd">
        <g id="编组-10">
            <g id="编组-4备份-33">
                <path d="M634.033401,508.695057 L665.719412,588.038813 C682.872011,630.989614 661.958437,679.713047 619.007636,696.865646 C601.457997,703.874175 582.053772,704.740824 563.949213,699.324715 L475.254233,672.790975 C465.896753,669.991618 456.710627,666.738353 447.725679,663.050107 C473.658147,648.607601 534.667049,599.920711 630.749846,516.993095 C631.891547,514.249264 632.986425,511.482871 634.033401,508.695057 Z" id="形状结合" fill="#000000"></path>
                <path d="M144.916313,82.5653477 C209.806682,33.5981983 293.348782,9.41819642 380.15405,21.6350303 C466.971619,33.8536017 540.622683,80.1567515 589.520354,145.137383 C638.425711,210.12823 662.57107,293.802323 650.367906,380.754448 C638.165285,467.702659 591.927024,541.46811 527.030093,590.440211 C462.143374,639.404606 378.603753,663.58226 291.786556,651.363747 C271.638335,648.5321 188.562827,581.174904 41.5506499,454.639207 C21.5321748,404.779965 13.5714134,349.282325 21.5762502,292.24483 C33.7784706,205.299472 80.0199729,131.537003 144.916313,82.5653477 Z" id="形状备份-6" stroke="#000000" stroke-width="37" fill="#FFCE00" fill-rule="nonzero" transform="translate(336.000000, 336.500000) scale(-1, 1) translate(-336.000000, -336.500000) "></path>
            </g>
            <path d="M501.614992,155.495763 C501.92708,157.653124 502.037681,165.46345 502.043349,175.736115 L502.043056,177.895582 C502.026075,199.455245 501.602325,230.296039 501.584884,243.549805 L501.584543,244.835972 C501.58604,246.467233 501.595514,247.758402 501.614992,248.642499 C479.529662,287.011748 433.859394,320.515706 391.179615,338.797533 L391.177062,377.581732 C427.372013,327.453132 484.498851,298.719188 501.390192,298.719188 C501.70228,300.876549 501.812881,308.686875 501.818549,318.95954 L501.818256,321.119007 C501.813075,327.696531 501.770034,335.137912 501.71222,342.680195 L501.692433,345.19698 C501.526891,365.764147 501.270889,386.450834 501.390192,391.865924 C479.343508,430.168032 433.794355,463.621862 391.178893,481.924846 L391.179795,587.509683 C391.179795,593.584815 386.254928,598.509683 380.179795,598.509683 C374.104663,598.509683 369.179795,593.584815 369.179795,587.509683 L369.179795,260.509683 C369.179795,254.434551 374.104663,249.509683 380.179795,249.509683 C380.815124,249.509683 381.437872,249.563545 382.043723,249.666951 L382.043581,248.642499 L382.043581,248.642499 C416.811636,189.725546 483.178913,155.495763 501.614992,155.495763 Z M235.428589,298.223425 C253.864668,298.223425 320.231944,332.453207 355,391.37016 C355.000157,391.649583 355.000262,391.931953 355.000318,392.217193 L355.000069,393.96244 C354.995828,403.15097 354.946739,414.946348 354.897098,427.012673 L354.887495,429.350847 L354.887495,429.350847 L354.87795,431.692023 C354.835232,442.228429 354.796431,452.741729 354.790814,461.688585 L354.790597,465.556808 C354.796173,475.257341 354.851209,482.591514 355,485.223425 C309.863196,468.028875 259.099452,432.493986 235.428589,391.37016 C235.545456,386.065583 235.302182,366.106378 235.136591,345.960449 L235.116329,343.442282 C235.053646,335.471635 235.005993,327.566186 235.000525,320.623243 L235.000232,318.463777 C235.005899,308.191112 235.1165,300.380786 235.428589,298.223425 Z M235.653389,155 C254.089468,155 320.456745,189.229782 355.2248,248.146735 C355.230281,257.926529 355.173129,271.317463 355.117094,284.957724 L355.107511,287.29787 C355.007253,311.881871 354.922419,336.651278 355.2248,342 C310.087996,324.80545 259.324253,289.270561 235.653389,248.146735 C235.896863,237.095533 234.577222,162.439175 235.653389,155 Z" id="形状结合备份-25" fill="#000000" transform="translate(368.521790, 376.754841) rotate(-40.000000) translate(-368.521790, -376.754841) "></path>
            <path d="M899.25293,650 L899.25293,637.255859 L836.73584,637.255859 L899.25293,558.808594 L899.25293,545.710449 L823.283691,545.710449 L823.283691,558.100586 L882.827148,558.100586 L819.035645,638.24707 L819.035645,650 L899.25293,650 Z M956.042008,652.76123 C968.314143,652.76123 978.049251,649.787598 985.24733,643.840332 C992.44541,637.893066 996.044449,629.892578 996.044449,619.838867 C996.044449,615.685221 995.312841,611.92098 993.849625,608.546143 C992.386409,605.171305 990.262386,602.303874 987.477555,599.943848 C983.795914,596.828613 976.338232,593.925781 965.104508,591.235352 L965.104508,591.235352 L963.617692,590.881348 C962.248876,590.550944 960.290055,590.078939 957.741227,589.465332 C940.560237,585.500488 931.969742,579.482422 931.969742,571.411133 C931.969742,566.360677 934.046565,562.313232 938.200211,559.268799 C942.353857,556.224365 947.899918,554.702148 954.838395,554.702148 C962.248876,554.702148 968.089941,556.566569 972.361588,560.29541 C976.633235,564.024251 979.005061,569.38151 979.477067,576.367188 L979.477067,576.367188 L993.000016,576.296387 C992.905615,565.959473 989.554378,557.829183 982.946305,551.905518 C976.338232,545.981852 967.275732,543.02002 955.758805,543.02002 C944.47788,543.02002 935.438981,545.840251 928.642106,551.480713 C921.845231,557.121175 918.446793,564.590658 918.446793,573.88916 C918.446793,581.488444 920.724218,587.353109 925.279068,591.483154 C929.833919,595.6132 939.191422,599.353841 953.351578,602.705078 C953.917985,602.84668 954.720393,603.035482 955.758805,603.271484 C973.222998,607.42513 981.955094,613.490397 981.955094,621.467285 C981.955094,627.32015 979.630468,631.945801 974.981217,635.344238 C970.331966,638.742676 963.971695,640.441895 955.900406,640.441895 C947.734716,640.441895 941.209244,638.19987 936.32399,633.71582 C931.438736,629.231771 928.925309,623.213704 928.783707,615.661621 L928.783707,615.661621 L915.119156,615.661621 C915.638362,627.603353 919.426204,636.772054 926.482682,643.167725 C933.53916,649.563395 943.392268,652.76123 956.042008,652.76123 Z M1033.64652,650 L1033.64652,561.14502 C1033.97692,562.891439 1034.33092,564.519857 1034.70853,566.030273 C1035.08613,567.54069 1035.51094,568.956706 1035.98294,570.27832 L1035.98294,570.27832 L1062.17923,650 L1075.56058,650 L1102.39407,570.27832 C1102.86608,568.767904 1103.31448,567.245687 1103.73929,565.71167 C1104.16409,564.177653 1104.5417,562.655436 1104.8721,561.14502 L1104.8721,561.14502 L1104.8721,650 L1118.60745,650 L1118.60745,545.710449 L1098.28763,545.710449 L1071.52493,625.50293 C1071.10013,626.730143 1070.69892,628.028158 1070.32132,629.396973 C1069.94372,630.765788 1069.56611,632.323405 1069.18851,634.069824 C1068.99971,633.125814 1068.7283,632.028402 1068.3743,630.777588 C1068.0203,629.526774 1067.46569,627.768555 1066.71048,625.50293 L1066.71048,625.50293 L1040.8682,545.710449 L1020.61917,545.710449 L1020.61917,650 L1033.64652,650 Z M1151.04106,650 L1162.15679,618.847656 L1203.22124,618.847656 L1214.26616,650 L1229.62993,650 L1190.7603,545.710449 L1175.11333,545.710449 L1136.3853,650 L1151.04106,650 Z M1199.04399,606.669922 L1166.54643,606.669922 L1182.90141,560.649414 L1199.04399,606.669922 Z M1261.85114,650 L1261.85114,545.710449 L1247.69098,545.710449 L1247.69098,650 L1261.85114,650 Z M1328.90633,650 L1328.90633,558.383789 L1361.82869,558.383789 L1361.82869,545.710449 L1281.75301,545.710449 L1281.75301,558.383789 L1314.67537,558.383789 L1314.67537,650 L1328.90633,650 Z M1395.89072,650 L1395.89072,545.710449 L1381.73056,545.710449 L1381.73056,650 L1395.89072,650 Z M1428.74913,650 L1439.86486,618.847656 L1480.92931,618.847656 L1491.97423,650 L1507.338,650 L1468.46837,545.710449 L1452.8214,545.710449 L1414.09337,650 L1428.74913,650 Z M1476.75206,606.669922 L1444.2545,606.669922 L1460.60949,560.649414 L1476.75206,606.669922 Z M1538.4264,650 L1538.4264,565.463867 C1538.9928,566.879883 1539.59461,568.225098 1540.23182,569.499512 C1540.86902,570.773926 1541.56523,572.001139 1542.32044,573.181152 L1542.32044,573.181152 L1592.09339,650 L1607.45716,650 L1607.45716,545.710449 L1593.93421,545.710449 L1593.93421,630.246582 C1593.4622,628.972168 1592.825,627.603353 1592.02259,626.140137 C1591.22018,624.676921 1590.27617,623.119303 1589.19056,621.467285 L1589.19056,621.467285 L1540.47962,545.710449 L1524.97425,545.710449 L1524.97425,650 L1538.4264,650 Z M1652.63491,650 L1652.63491,634.211426 L1638.12075,634.211426 L1638.12075,650 L1652.63491,650 Z M1725.92057,652.902832 C1738.66471,652.902832 1749.06062,649.13859 1757.10831,641.610107 C1765.156,634.081624 1769.48665,623.968913 1770.10026,611.271973 L1770.10026,611.271973 L1756.3649,611.271973 C1755.9873,620.004069 1753.07267,627.025146 1747.62101,632.335205 C1742.16935,637.645264 1735.17187,640.300293 1726.62858,640.300293 C1716.62207,640.300293 1708.58618,636.453451 1702.52091,628.759766 C1696.45564,621.066081 1693.42301,610.847168 1693.42301,598.103027 C1693.42301,584.603678 1696.33764,574.148763 1702.16691,566.738281 C1707.99617,559.327799 1716.19726,555.622559 1726.77018,555.622559 C1734.69986,555.622559 1741.14274,557.475179 1746.09879,561.18042 C1751.05485,564.885661 1754.19368,570.183919 1755.51529,577.075195 L1755.51529,577.075195 L1769.39225,577.075195 C1768.21223,566.549479 1763.85799,558.242188 1756.3295,552.15332 C1748.80102,546.064453 1739.13671,543.02002 1727.33658,543.02002 C1712.51562,543.02002 1700.73909,547.822673 1692.00699,557.427979 C1683.2749,567.033285 1678.90885,580.001628 1678.90885,596.333008 C1678.90885,614.033203 1683.07429,627.886556 1691.40519,637.893066 C1699.73608,647.899577 1711.24121,652.902832 1725.92057,652.902832 Z M1838.78386,652.902832 C1854.21843,652.902832 1866.28997,648.052979 1874.99846,638.353271 C1883.70696,628.653564 1888.06121,615.189616 1888.06121,597.961426 C1888.06121,580.686035 1883.70696,567.210286 1874.99846,557.53418 C1866.28997,547.858073 1854.21843,543.02002 1838.78386,543.02002 C1823.30209,543.02002 1811.18336,547.869873 1802.42766,557.56958 C1793.67197,567.269287 1789.29412,580.733236 1789.29412,597.961426 C1789.29412,615.189616 1793.67197,628.653564 1802.42766,638.353271 C1811.18336,648.052979 1823.30209,652.902832 1838.78386,652.902832 Z M1838.78386,640.583496 C1827.88054,640.583496 1819.34905,636.819255 1813.18938,629.290771 C1807.02971,621.762288 1803.94988,611.319173 1803.94988,597.961426 C1803.94988,584.556478 1807.02971,574.101562 1813.18938,566.59668 C1819.34905,559.091797 1827.88054,555.339355 1838.78386,555.339355 C1849.63998,555.339355 1858.12428,559.091797 1864.23675,566.59668 C1870.34921,574.101562 1873.40545,584.556478 1873.40545,597.961426 C1873.40545,611.319173 1870.34921,621.762288 1864.23675,629.290771 C1858.12428,636.819255 1849.63998,640.583496 1838.78386,640.583496 Z M1925.94648,650 L1925.94648,561.14502 C1926.27688,562.891439 1926.63089,564.519857 1927.00849,566.030273 C1927.38609,567.54069 1927.8109,568.956706 1928.2829,570.27832 L1928.2829,570.27832 L1954.47919,650 L1967.86054,650 L1994.69404,570.27832 C1995.16604,568.767904 1995.61445,567.245687 1996.03925,565.71167 C1996.46406,564.177653 1996.84166,562.655436 1997.17206,561.14502 L1997.17206,561.14502 L1997.17206,650 L2010.90742,650 L2010.90742,545.710449 L1990.58759,545.710449 L1963.8249,625.50293 C1963.40009,626.730143 1962.99889,628.028158 1962.62128,629.396973 C1962.24368,630.765788 1961.86607,632.323405 1961.48847,634.069824 C1961.29967,633.125814 1961.02827,632.028402 1960.67426,630.777588 C1960.32026,629.526774 1959.76565,627.768555 1959.01044,625.50293 L1959.01044,625.50293 L1933.16816,545.710449 L1912.91913,545.710449 L1912.91913,650 L1925.94648,650 Z" id="ZSMAITIAN.COM" fill="#000000" fill-rule="nonzero"></path>
            <path d="M851,436.544 C860.984,426.752 869.624,416.672 876.92,406.304 C884.216,395.936 890.456,385.184 895.64,374.048 C901.976,382.496 908.216,391.04 914.36,399.68 C920.504,408.32 925.976,416.576 930.776,424.448 L930.776,424.448 L961.592,396.8 C958.52,392.192 954.92,387.056 950.792,381.392 C946.664,375.728 942.344,369.92 937.832,363.968 C933.32,358.016 928.712,352.208 924.008,346.544 C919.304,340.88 914.84,335.84 910.616,331.424 L910.616,331.424 L912.92,319.904 L957.56,319.904 L957.56,281.6 L917.528,281.6 C917.72,278.144 917.864,274.64 917.96,271.088 C918.056,267.536 918.104,263.936 918.104,260.288 L918.104,260.288 L918.104,225.728 L952.088,225.728 L952.088,187.424 L872.888,187.424 C873.848,182.24 874.664,177.152 875.336,172.16 C876.008,167.168 876.728,162.176 877.496,157.184 L877.496,157.184 L838.616,152 C837.656,159.68 836.504,167.744 835.16,176.192 C833.816,184.64 832.232,193.04 830.408,201.392 C828.584,209.744 826.52,217.904 824.216,225.872 C821.912,233.84 819.416,241.28 816.728,248.192 L816.728,248.192 L851.288,265.184 C856.28,254.624 860.696,241.472 864.536,225.728 L864.536,225.728 L874.904,225.728 L874.904,260.288 C874.904,267.968 874.616,275.072 874.04,281.6 L874.04,281.6 L825.368,281.6 L820.472,319.904 L868.568,319.904 C864.344,338.528 858.104,354.992 849.848,369.296 C841.592,383.6 831.416,396.8 819.32,408.896 L819.32,408.896 L851,436.544 Z M1007.96,433.376 L1007.96,410.912 L1054.904,410.912 L1054.904,433.376 L1097.816,433.376 L1097.816,185.12 C1097.816,181.088 1096.424,177.68 1093.64,174.896 C1090.856,172.112 1087.448,170.72 1083.416,170.72 L1083.416,170.72 L979.16,170.72 C975.32,170.72 971.96,172.112 969.08,174.896 C966.2,177.68 964.76,181.088 964.76,185.12 L964.76,185.12 L964.76,433.376 L1007.96,433.376 Z M1054.904,373.472 L1007.96,373.472 L1007.96,215.36 C1007.96,213.248 1008.632,211.52 1009.976,210.176 C1011.32,208.832 1013.048,208.16 1015.16,208.16 L1015.16,208.16 L1047.704,208.16 C1049.624,208.16 1051.304,208.832 1052.744,210.176 C1054.184,211.52 1054.904,213.248 1054.904,215.36 L1054.904,215.36 L1054.904,373.472 Z M1168.636,231.776 L1210.684,217.664 L1186.78,151.424 L1145.02,162.944 L1168.636,231.776 Z M1380.316,323.936 C1384.156,323.936 1387.516,322.496 1390.396,319.616 C1393.276,316.736 1394.716,313.376 1394.716,309.536 L1394.716,309.536 L1394.716,180.224 C1394.716,176.192 1393.276,172.784 1390.396,170 C1387.516,167.216 1384.156,165.824 1380.316,165.824 L1380.316,165.824 L1248.124,165.824 C1244.092,165.824 1240.684,167.216 1237.9,170 C1235.116,172.784 1233.724,176.192 1233.724,180.224 L1233.724,180.224 L1233.724,309.536 C1233.724,313.376 1235.116,316.736 1237.9,319.616 C1240.684,322.496 1244.092,323.936 1248.124,323.936 L1248.124,323.936 L1380.316,323.936 Z M1347.196,286.496 L1280.956,286.496 C1279.804,286.496 1278.796,286.064 1277.932,285.2 C1277.068,284.336 1276.636,283.328 1276.636,282.176 L1276.636,282.176 L1276.636,207.584 C1276.636,206.24 1277.068,205.184 1277.932,204.416 C1278.796,203.648 1279.804,203.264 1280.956,203.264 L1280.956,203.264 L1347.196,203.264 C1348.348,203.264 1349.356,203.648 1350.22,204.416 C1351.084,205.184 1351.516,206.24 1351.516,207.584 L1351.516,207.584 L1351.516,282.176 C1351.516,283.328 1351.084,284.336 1350.22,285.2 C1349.356,286.064 1348.348,286.496 1347.196,286.496 L1347.196,286.496 Z M1164.316,434.096 C1167.388,435.152 1171.228,435.392 1175.836,434.816 L1175.836,434.816 L1218.172,427.616 L1218.172,393.056 L1202.044,396.224 C1199.356,397.184 1197.532,396.944 1196.572,395.504 C1195.612,394.064 1195.132,392.192 1195.132,389.888 L1195.132,389.888 L1195.132,262.016 C1195.132,256.832 1193.308,252.368 1189.66,248.624 C1186.012,244.88 1181.596,243.008 1176.412,243.008 L1176.412,243.008 L1128.316,243.008 L1121.116,280.16 L1147.324,280.16 C1148.476,280.16 1149.484,280.592 1150.348,281.456 C1151.212,282.32 1151.644,283.328 1151.644,284.48 L1151.644,284.48 L1151.644,410.912 C1151.644,414.56 1152.076,417.968 1152.94,421.136 C1153.804,424.304 1155.148,426.992 1156.972,429.2 C1158.796,431.408 1161.244,433.04 1164.316,434.096 Z M1261.66,437.408 L1297.948,352.736 L1257.052,337.184 L1222.492,420.416 L1261.66,437.408 Z M1363.9,437.408 L1405.372,418.4 L1368.508,337.184 L1327.324,352.736 L1363.9,437.408 Z M1443.648,437.696 C1465.344,436.16 1487.28,432.896 1509.456,427.904 C1531.632,422.912 1552.8,416.768 1572.96,409.472 C1591.776,416.192 1611.168,421.952 1631.136,426.752 C1651.104,431.552 1671.168,434.912 1691.328,436.832 L1691.328,436.832 L1709.472,400.544 C1695.072,399.584 1680.72,397.952 1666.416,395.648 C1652.112,393.344 1638.048,390.464 1624.224,387.008 C1635.552,380.864 1645.536,374.576 1654.176,368.144 C1662.816,361.712 1669.824,355.136 1675.2,348.416 C1677.504,345.536 1679.04,342.08 1679.808,338.048 C1680.576,334.016 1680.384,330.128 1679.232,326.384 C1678.08,322.64 1675.68,319.424 1672.032,316.736 C1668.384,314.048 1663.296,312.704 1656.768,312.704 L1656.768,312.704 L1541.568,312.704 C1543.296,310.784 1545.024,308.816 1546.752,306.8 C1548.48,304.784 1550.112,302.72 1551.648,300.608 L1551.648,300.608 L1701.12,300.608 L1701.12,265.76 L1588.8,265.76 L1588.8,253.952 L1674.048,253.952 L1674.048,219.104 L1588.8,219.104 L1588.8,207.008 L1689.312,207.008 L1689.312,172.448 L1588.8,172.448 L1588.8,151.136 L1545.6,151.136 L1545.6,172.448 L1453.152,172.448 L1445.088,207.008 L1545.6,207.008 L1545.6,219.104 L1468.704,219.104 L1460.352,253.952 L1545.6,253.952 L1545.6,265.76 L1441.344,265.76 L1433.28,300.608 L1500.096,300.608 C1489.92,310.976 1479.168,321.008 1467.84,330.704 C1456.512,340.4 1445.664,348.416 1435.296,354.752 L1435.296,354.752 L1459.776,383.552 C1464,380.864 1468.224,378.032 1472.448,375.056 C1476.672,372.08 1480.896,368.96 1485.12,365.696 C1495.488,372.992 1507.488,380.192 1521.12,387.296 C1505.376,391.712 1489.536,395.312 1473.6,398.096 C1457.664,400.88 1442.592,402.56 1428.384,403.136 L1428.384,403.136 L1443.648,437.696 Z M1571.232,370.304 C1552.224,363.2 1536.096,355.616 1522.848,347.552 L1522.848,347.552 L1615.584,347.552 C1609.824,351.584 1603.152,355.52 1595.568,359.36 C1587.984,363.2 1579.872,366.848 1571.232,370.304 Z M1788.932,435.968 L1788.932,416.384 L1961.444,416.384 L1961.444,435.968 L2004.932,435.968 L2004.932,184.256 C2004.932,180.224 2003.492,176.72 2000.612,173.744 C1997.732,170.768 1994.276,169.28 1990.244,169.28 L1990.244,169.28 L1760.132,169.28 C1755.908,169.28 1752.356,170.768 1749.476,173.744 C1746.596,176.72 1745.156,180.224 1745.156,184.256 L1745.156,184.256 L1745.156,435.968 L1788.932,435.968 Z M1961.444,273.536 L1896.644,273.536 L1896.644,206.72 L1957.7,206.72 C1958.66,206.72 1959.524,207.056 1960.292,207.728 C1961.06,208.4 1961.444,209.216 1961.444,210.176 L1961.444,210.176 L1961.444,273.536 Z M1853.444,273.536 L1788.932,273.536 L1788.932,210.176 C1788.932,209.216 1789.268,208.4 1789.94,207.728 C1790.612,207.056 1791.428,206.72 1792.388,206.72 L1792.388,206.72 L1853.444,206.72 L1853.444,273.536 Z M1961.444,378.944 L1896.644,378.944 L1896.644,310.976 L1961.444,310.976 L1961.444,378.944 Z M1853.444,378.944 L1788.932,378.944 L1788.932,310.976 L1853.444,310.976 L1853.444,378.944 Z" id="知识麦田" fill="#000000" fill-rule="nonzero"></path>
        </g>
    </g>
</svg>