<?xml version="1.0" encoding="UTF-8"?>
<svg width="1189px" height="287px" viewBox="0 0 1189 287" version="1.1" xmlns="http://www.w3.org/2000/svg" xmlns:xlink="http://www.w3.org/1999/xlink">
    <title>知识麦田</title>
    <g id="页面-1" stroke="none" stroke-width="1" fill="none" fill-rule="evenodd">
        <g id="编组-15" transform="translate(-1.000000, 0.000000)" fill="#000000" fill-rule="nonzero">
            <path d="M35.904,285.408 C45.888,275.616 54.528,265.536 61.824,255.168 C69.12,244.8 75.36,234.048 80.544,222.912 C86.88,231.36 93.12,239.904 99.264,248.544 C105.408,257.184 110.88,265.44 115.68,273.312 L115.68,273.312 L146.496,245.664 C143.424,241.056 139.824,235.92 135.696,230.256 C131.568,224.592 127.248,218.784 122.736,212.832 C118.224,206.88 113.616,201.072 108.912,195.408 C104.208,189.744 99.744,184.704 95.52,180.288 L95.52,180.288 L97.824,168.768 L142.464,168.768 L142.464,130.464 L102.432,130.464 C102.624,127.008 102.768,123.504 102.864,119.952 C102.96,116.4 103.008,112.8 103.008,109.152 L103.008,109.152 L103.008,74.592 L136.992,74.592 L136.992,36.288 L57.792,36.288 C58.752,31.104 59.568,26.016 60.24,21.024 C60.912,16.032 61.632,11.04 62.4,6.048 L62.4,6.048 L23.52,0.864 C22.56,8.544 21.408,16.608 20.064,25.056 C18.72,33.504 17.136,41.904 15.312,50.256 C13.488,58.608 11.424,66.768 9.12,74.736 C6.816,82.704 4.32,90.144 1.632,97.056 L1.632,97.056 L36.192,114.048 C41.184,103.488 45.6,90.336 49.44,74.592 L49.44,74.592 L59.808,74.592 L59.808,109.152 C59.808,116.832 59.52,123.936 58.944,130.464 L58.944,130.464 L10.272,130.464 L5.376,168.768 L53.472,168.768 C49.248,187.392 43.008,203.856 34.752,218.16 C26.496,232.464 16.32,245.664 4.224,257.76 L4.224,257.76 L35.904,285.408 Z M192.864,282.24 L192.864,259.776 L239.808,259.776 L239.808,282.24 L282.72,282.24 L282.72,33.984 C282.72,29.952 281.328,26.544 278.544,23.76 C275.76,20.976 272.352,19.584 268.32,19.584 L268.32,19.584 L164.064,19.584 C160.224,19.584 156.864,20.976 153.984,23.76 C151.104,26.544 149.664,29.952 149.664,33.984 L149.664,33.984 L149.664,282.24 L192.864,282.24 Z M239.808,222.336 L192.864,222.336 L192.864,64.224 C192.864,62.112 193.536,60.384 194.88,59.04 C196.224,57.696 197.952,57.024 200.064,57.024 L200.064,57.024 L232.608,57.024 C234.528,57.024 236.208,57.696 237.648,59.04 C239.088,60.384 239.808,62.112 239.808,64.224 L239.808,64.224 L239.808,222.336 Z M353.54,80.64 L395.588,66.528 L371.684,0.288 L329.924,11.808 L353.54,80.64 Z M565.22,172.8 C569.06,172.8 572.42,171.36 575.3,168.48 C578.18,165.6 579.62,162.24 579.62,158.4 L579.62,158.4 L579.62,29.088 C579.62,25.056 578.18,21.648 575.3,18.864 C572.42,16.08 569.06,14.688 565.22,14.688 L565.22,14.688 L433.028,14.688 C428.996,14.688 425.588,16.08 422.804,18.864 C420.02,21.648 418.628,25.056 418.628,29.088 L418.628,29.088 L418.628,158.4 C418.628,162.24 420.02,165.6 422.804,168.48 C425.588,171.36 428.996,172.8 433.028,172.8 L433.028,172.8 L565.22,172.8 Z M532.1,135.36 L465.86,135.36 C464.708,135.36 463.7,134.928 462.836,134.064 C461.972,133.2 461.54,132.192 461.54,131.04 L461.54,131.04 L461.54,56.448 C461.54,55.104 461.972,54.048 462.836,53.28 C463.7,52.512 464.708,52.128 465.86,52.128 L465.86,52.128 L532.1,52.128 C533.252,52.128 534.26,52.512 535.124,53.28 C535.988,54.048 536.42,55.104 536.42,56.448 L536.42,56.448 L536.42,131.04 C536.42,132.192 535.988,133.2 535.124,134.064 C534.26,134.928 533.252,135.36 532.1,135.36 L532.1,135.36 Z M349.22,282.96 C352.292,284.016 356.132,284.256 360.74,283.68 L360.74,283.68 L403.076,276.48 L403.076,241.92 L386.948,245.088 C384.26,246.048 382.436,245.808 381.476,244.368 C380.516,242.928 380.036,241.056 380.036,238.752 L380.036,238.752 L380.036,110.88 C380.036,105.696 378.212,101.232 374.564,97.488 C370.916,93.744 366.5,91.872 361.316,91.872 L361.316,91.872 L313.22,91.872 L306.02,129.024 L332.228,129.024 C333.38,129.024 334.388,129.456 335.252,130.32 C336.116,131.184 336.548,132.192 336.548,133.344 L336.548,133.344 L336.548,259.776 C336.548,263.424 336.98,266.832 337.844,270 C338.708,273.168 340.052,275.856 341.876,278.064 C343.7,280.272 346.148,281.904 349.22,282.96 Z M446.564,286.272 L482.852,201.6 L441.956,186.048 L407.396,269.28 L446.564,286.272 Z M548.804,286.272 L590.276,267.264 L553.412,186.048 L512.228,201.6 L548.804,286.272 Z M628.552,286.56 C650.248,285.024 672.184,281.76 694.36,276.768 C716.536,271.776 737.704,265.632 757.864,258.336 C776.68,265.056 796.072,270.816 816.04,275.616 C836.008,280.416 856.072,283.776 876.232,285.696 L876.232,285.696 L894.376,249.408 C879.976,248.448 865.624,246.816 851.32,244.512 C837.016,242.208 822.952,239.328 809.128,235.872 C820.456,229.728 830.44,223.44 839.08,217.008 C847.72,210.576 854.728,204 860.104,197.28 C862.408,194.4 863.944,190.944 864.712,186.912 C865.48,182.88 865.288,178.992 864.136,175.248 C862.984,171.504 860.584,168.288 856.936,165.6 C853.288,162.912 848.2,161.568 841.672,161.568 L841.672,161.568 L726.472,161.568 C728.2,159.648 729.928,157.68 731.656,155.664 C733.384,153.648 735.016,151.584 736.552,149.472 L736.552,149.472 L886.024,149.472 L886.024,114.624 L773.704,114.624 L773.704,102.816 L858.952,102.816 L858.952,67.968 L773.704,67.968 L773.704,55.872 L874.216,55.872 L874.216,21.312 L773.704,21.312 L773.704,-9.09494702e-13 L730.504,-9.09494702e-13 L730.504,21.312 L638.056,21.312 L629.992,55.872 L730.504,55.872 L730.504,67.968 L653.608,67.968 L645.256,102.816 L730.504,102.816 L730.504,114.624 L626.248,114.624 L618.184,149.472 L685,149.472 C674.824,159.84 664.072,169.872 652.744,179.568 C641.416,189.264 630.568,197.28 620.2,203.616 L620.2,203.616 L644.68,232.416 C648.904,229.728 653.128,226.896 657.352,223.92 C661.576,220.944 665.8,217.824 670.024,214.56 C680.392,221.856 692.392,229.056 706.024,236.16 C690.28,240.576 674.44,244.176 658.504,246.96 C642.568,249.744 627.496,251.424 613.288,252 L613.288,252 L628.552,286.56 Z M756.136,219.168 C737.128,212.064 721,204.48 707.752,196.416 L707.752,196.416 L800.488,196.416 C794.728,200.448 788.056,204.384 780.472,208.224 C772.888,212.064 764.776,215.712 756.136,219.168 Z M973.836,284.832 L973.836,265.248 L1146.348,265.248 L1146.348,284.832 L1189.836,284.832 L1189.836,33.12 C1189.836,29.088 1188.396,25.584 1185.516,22.608 C1182.636,19.632 1179.18,18.144 1175.148,18.144 L1175.148,18.144 L945.036,18.144 C940.812,18.144 937.26,19.632 934.38,22.608 C931.5,25.584 930.06,29.088 930.06,33.12 L930.06,33.12 L930.06,284.832 L973.836,284.832 Z M1146.348,122.4 L1081.548,122.4 L1081.548,55.584 L1142.604,55.584 C1143.564,55.584 1144.428,55.92 1145.196,56.592 C1145.964,57.264 1146.348,58.08 1146.348,59.04 L1146.348,59.04 L1146.348,122.4 Z M1038.348,122.4 L973.836,122.4 L973.836,59.04 C973.836,58.08 974.172,57.264 974.844,56.592 C975.516,55.92 976.332,55.584 977.292,55.584 L977.292,55.584 L1038.348,55.584 L1038.348,122.4 Z M1146.348,227.808 L1081.548,227.808 L1081.548,159.84 L1146.348,159.84 L1146.348,227.808 Z M1038.348,227.808 L973.836,227.808 L973.836,159.84 L1038.348,159.84 L1038.348,227.808 Z" id="知识麦田"></path>
        </g>
    </g>
</svg>